<?xml version="1.0" encoding="utf-8"?>
<svg xmlns="http://www.w3.org/2000/svg" style="margin: auto; background-image: none; display: block; shape-rendering: auto;" width="320" height="50" preserveAspectRatio="xMidYMid">
<style type="text/css">
  text {
    text-anchor: middle; font-size: 46px; opacity: 0;
  }
</style>
<g style="transform-origin:160px 25px;transform:scale(1)">
<g transform="translate(160,25)">
  <g transform="translate(-15,3)"><g class="path" style="opacity: 1; transform-origin: -114.614982px -4.227587px; animation: 10s linear -3.885714s infinite normal forwards running blink-faa97d42-4aa4-4b0f-a769-b40a440576fe;"><path d="M25.36-21.20L25.36-21.20L24.06-20.21L24.06-20.21Q22.10-22.64 19.02-22.64L19.02-22.64L19.02-22.64Q16.35-22.64 14.45-20.74L14.45-20.74L14.45-20.74Q12.56-18.84 12.56-16.17L12.56-16.17L12.56-16.17Q12.56-13.50 14.45-11.60L14.45-11.60L14.45-11.60Q16.35-9.70 19.02-9.70L19.02-9.70L19.02-9.70Q20.53-9.70 21.84-10.35L21.84-10.35L21.84-10.35Q23.16-11.01 24.08-12.15L24.08-12.15L25.34-11.10L25.34-11.10Q24.21-9.68 22.55-8.88L22.55-8.88L22.55-8.88Q20.89-8.09 19.02-8.09L19.02-8.09L19.02-8.09Q15.68-8.09 13.31-10.46L13.31-10.46L13.31-10.46Q10.94-12.83 10.94-16.17L10.94-16.17L10.94-16.17Q10.94-19.52 13.31-21.89L13.31-21.89L13.31-21.89Q15.68-24.26 19.02-24.26L19.02-24.26L19.02-24.26Q20.91-24.26 22.57-23.44L22.57-23.44L22.57-23.44Q24.24-22.62 25.36-21.20" fill="#63d471" stroke="none" stroke-width="none" transform="translate(-132.76498413085938,11.947413643973215)" style="fill: rgb(99, 212, 113);"></path></g><g class="path" style="opacity: 1; transform-origin: -114.979986px -4.222587px; animation: 10s linear -3.771429s infinite normal forwards running blink-faa97d42-4aa4-4b0f-a769-b40a440576fe;"><path d="M27.87-23.22L27.87-23.22L26.59-22.24L26.59-22.24Q25.25-23.94 23.26-24.91L23.26-24.91L23.26-24.91Q21.27-25.88 19.02-25.88L19.02-25.88L19.02-25.88Q15.00-25.88 12.16-23.02L12.16-23.02L12.16-23.02Q9.32-20.17 9.32-16.17L9.32-16.17L9.32-16.17Q9.32-12.17 12.16-9.32L12.16-9.32L12.16-9.32Q15.00-6.47 19.02-6.47L19.02-6.47L19.02-6.47Q21.27-6.47 23.27-7.45L23.27-7.45L23.27-7.45Q25.27-8.42 26.62-10.13L26.62-10.13L27.85-9.10L27.85-9.10Q26.28-7.12 23.97-5.99L23.97-5.99L23.97-5.99Q21.65-4.85 19.02-4.85L19.02-4.85L19.02-4.85Q15.95-4.85 13.34-6.37L13.34-6.37L13.34-6.37Q10.74-7.88 9.22-10.49L9.22-10.49L9.22-10.49Q7.70-13.09 7.70-16.17L7.70-16.17L7.70-16.17Q7.70-19.25 9.22-21.85L9.22-21.85L9.22-21.85Q10.74-24.46 13.34-25.98L13.34-25.98L13.34-25.98Q15.95-27.49 19.02-27.49L19.02-27.49L19.02-27.49Q21.65-27.49 23.98-26.36L23.98-26.36L23.98-26.36Q26.30-25.22 27.87-23.22" fill="#63d471" stroke="none" stroke-width="none" transform="translate(-132.76498413085938,11.947413643973215)" style="fill: rgb(99, 212, 113);"></path></g><g class="path" style="opacity: 1; transform-origin: -115.324984px -4.227586px; animation: 10s linear -3.657143s infinite normal forwards running blink-faa97d42-4aa4-4b0f-a769-b40a440576fe;"><path d="M30.41-25.25L30.41-25.25L29.15-24.24L29.15-24.24Q27.33-26.50 24.68-27.81L24.68-27.81L24.68-27.81Q22.03-29.11 19.02-29.11L19.02-29.11L19.02-29.11Q16.40-29.11 14.00-28.09L14.00-28.09L14.00-28.09Q11.61-27.07 9.87-25.32L9.87-25.32L9.87-25.32Q8.13-23.58 7.11-21.19L7.11-21.19L7.11-21.19Q6.09-18.80 6.09-16.17L6.09-16.17L6.09-16.17Q6.09-13.54 7.11-11.15L7.11-11.15L7.11-11.15Q8.13-8.76 9.87-7.02L9.87-7.02L9.87-7.02Q11.61-5.28 14.00-4.26L14.00-4.26L14.00-4.26Q16.40-3.23 19.02-3.23L19.02-3.23L19.02-3.23Q22.03-3.23 24.68-4.54L24.68-4.54L24.68-4.54Q27.33-5.84 29.15-8.11L29.15-8.11L30.37-7.05L30.37-7.05Q28.32-4.51 25.36-3.07L25.36-3.07L25.36-3.07Q22.39-1.62 19.02-1.62L19.02-1.62L19.02-1.62Q16.06-1.62 13.36-2.77L13.36-2.77L13.36-2.77Q10.67-3.93 8.73-5.87L8.73-5.87L8.73-5.87Q6.78-7.82 5.63-10.51L5.63-10.51L5.63-10.51Q4.47-13.21 4.47-16.17L4.47-16.17L4.47-16.17Q4.47-19.14 5.63-21.83L5.63-21.83L5.63-21.83Q6.78-24.53 8.73-26.47L8.73-26.47L8.73-26.47Q10.67-28.41 13.36-29.57L13.36-29.57L13.36-29.57Q16.06-30.73 19.02-30.73L19.02-30.73L19.02-30.73Q22.42-30.73 25.39-29.27L25.39-29.27L25.39-29.27Q28.37-27.81 30.41-25.25" fill="#63d471" stroke="none" stroke-width="none" transform="translate(-132.76498413085938,11.947413643973215)" style="fill: rgb(99, 212, 113);"></path></g><g class="path" style="opacity: 1; transform-origin: -115.679978px -4.222586px; animation: 10s linear -3.542857s infinite normal forwards running blink-faa97d42-4aa4-4b0f-a769-b40a440576fe;"><path d="M32.93-27.27L32.93-27.27L31.63-26.30L31.63-26.30Q29.36-29.11 26.07-30.73L26.07-30.73L26.07-30.73Q22.78-32.34 19.02-32.34L19.02-32.34L19.02-32.34Q15.75-32.34 12.75-31.06L12.75-31.06L12.75-31.06Q9.75-29.78 7.58-27.62L7.58-27.62L7.58-27.62Q5.41-25.45 4.13-22.45L4.13-22.45L4.13-22.45Q2.85-19.45 2.85-16.17L2.85-16.17L2.85-16.17Q2.85-12.89 4.13-9.89L4.13-9.89L4.13-9.89Q5.41-6.90 7.58-4.73L7.58-4.73L7.58-4.73Q9.75-2.56 12.75-1.28L12.75-1.28L12.75-1.28Q15.75 0 19.02 0L19.02 0L19.02 0Q22.78 0 26.07-1.62L26.07-1.62L26.07-1.62Q29.36-3.23 31.63-6.04L31.63-6.04L32.91-5.05L32.91-5.05Q30.41-1.95 26.78-0.17L26.78-0.17L26.78-0.17Q23.16 1.62 19.02 1.62L19.02 1.62L19.02 1.62Q15.41 1.62 12.12 0.20L12.12 0.20L12.12 0.20Q8.83-1.21 6.45-3.59L6.45-3.59L6.45-3.59Q4.07-5.97 2.65-9.27L2.65-9.27L2.65-9.27Q1.24-12.56 1.24-16.17L1.24-16.17L1.24-16.17Q1.24-19.79 2.65-23.08L2.65-23.08L2.65-23.08Q4.07-26.37 6.45-28.75L6.45-28.75L6.45-28.75Q8.83-31.13 12.12-32.55L12.12-32.55L12.12-32.55Q15.41-33.96 19.02-33.96L19.02-33.96L19.02-33.96Q23.16-33.96 26.80-32.18L26.80-32.18L26.80-32.18Q30.43-30.39 32.93-27.27" fill="#63d471" stroke="none" stroke-width="none" transform="translate(-132.76498413085938,11.947413643973215)" style="fill: rgb(99, 212, 113);"></path></g><g class="path" style="opacity: 1; transform-origin: -80.62998px -8.267586px; animation: 10s linear -3.428571s infinite normal forwards running blink-faa97d42-4aa4-4b0f-a769-b40a440576fe;"><path d="M57.21-14.33L57.21-14.33L57.21-32.34L58.83-32.34L58.83-14.33L58.83-14.33Q58.83-11.77 56.86-9.93L56.86-9.93L56.86-9.93Q54.89-8.09 52.13-8.09L52.13-8.09L52.13-8.09Q49.37-8.09 47.40-9.93L47.40-9.93L47.40-9.93Q45.44-11.77 45.44-14.33L45.44-14.33L45.44-32.34L47.06-32.34L47.06-14.33L47.06-14.33Q47.06-12.42 48.55-11.06L48.55-11.06L48.55-11.06Q50.04-9.70 52.13-9.70L52.13-9.70L52.13-9.70Q54.22-9.70 55.71-11.06L55.71-11.06L55.71-11.06Q57.21-12.42 57.21-14.33" fill="#63d471" stroke="none" stroke-width="none" transform="translate(-132.76498413085938,11.947413643973215)" style="fill: rgb(99, 212, 113);"></path></g><g class="path" style="opacity: 1; transform-origin: -80.634987px -6.647586px; animation: 10s linear -3.314286s infinite normal forwards running blink-faa97d42-4aa4-4b0f-a769-b40a440576fe;"><path d="M60.44-14.33L60.44-14.33L60.44-32.34L62.06-32.34L62.06-14.33L62.06-14.33Q62.06-10.40 59.14-7.63L59.14-7.63L59.14-7.63Q56.22-4.85 52.13-4.85L52.13-4.85L52.13-4.85Q48.04-4.85 45.12-7.63L45.12-7.63L45.12-7.63Q42.20-10.40 42.20-14.33L42.20-14.33L42.20-32.34L43.82-32.34L43.82-14.33L43.82-14.33Q43.82-11.07 46.26-8.77L46.26-8.77L46.26-8.77Q48.70-6.47 52.13-6.47L52.13-6.47L52.13-6.47Q55.55-6.47 57.99-8.77L57.99-8.77L57.99-8.77Q60.44-11.07 60.44-14.33" fill="#63d471" stroke="none" stroke-width="none" transform="translate(-132.76498413085938,11.947413643973215)" style="fill: rgb(99, 212, 113);"></path></g><g class="path" style="opacity: 1; transform-origin: -80.634983px -5.032586px; animation: 10s linear -3.2s infinite normal forwards running blink-faa97d42-4aa4-4b0f-a769-b40a440576fe;"><path d="M63.68-14.33L63.68-14.33L63.68-32.34L65.29-32.34L65.29-14.33L65.29-14.33Q65.29-10.89 63.52-7.96L63.52-7.96L63.52-7.96Q61.75-5.03 58.71-3.32L58.71-3.32L58.71-3.32Q55.68-1.62 52.13-1.62L52.13-1.62L52.13-1.62Q48.58-1.62 45.55-3.32L45.55-3.32L45.55-3.32Q42.52-5.03 40.74-7.96L40.74-7.96L40.74-7.96Q38.97-10.89 38.97-14.33L38.97-14.33L38.97-32.34L40.59-32.34L40.59-14.33L40.59-14.33Q40.59-11.34 42.14-8.78L42.14-8.78L42.14-8.78Q43.69-6.22 46.35-4.73L46.35-4.73L46.35-4.73Q49.01-3.23 52.13-3.23L52.13-3.23L52.13-3.23Q55.25-3.23 57.92-4.73L57.92-4.73L57.92-4.73Q60.58-6.22 62.13-8.78L62.13-8.78L62.13-8.78Q63.68-11.34 63.68-14.33" fill="#63d471" stroke="none" stroke-width="none" transform="translate(-132.76498413085938,11.947413643973215)" style="fill: rgb(99, 212, 113);"></path></g><g class="path" style="opacity: 1; transform-origin: -80.62998px -3.412586px; animation: 10s linear -3.085714s infinite normal forwards running blink-faa97d42-4aa4-4b0f-a769-b40a440576fe;"><path d="M66.91-14.33L66.91-14.33L66.91-32.34L68.53-32.34L68.53-14.33L68.53-14.33Q68.53-11.10 67.23-8.14L67.23-8.14L67.23-8.14Q65.92-5.19 63.72-3.05L63.72-3.05L63.72-3.05Q61.52-0.92 58.49 0.35L58.49 0.35L58.49 0.35Q55.46 1.62 52.13 1.62L52.13 1.62L52.13 1.62Q48.81 1.62 45.78 0.35L45.78 0.35L45.78 0.35Q42.74-0.92 40.54-3.05L40.54-3.05L40.54-3.05Q38.34-5.19 37.04-8.14L37.04-8.14L37.04-8.14Q35.74-11.10 35.74-14.33L35.74-14.33L35.74-32.34L37.35-32.34L37.35-14.33L37.35-14.33Q37.35-10.47 39.34-7.17L39.34-7.17L39.34-7.17Q41.33-3.86 44.73-1.93L44.73-1.93L44.73-1.93Q48.13 0 52.13 0L52.13 0L52.13 0Q56.13 0 59.53-1.93L59.53-1.93L59.53-1.93Q62.94-3.86 64.92-7.17L64.92-7.17L64.92-7.17Q66.91-10.47 66.91-14.33" fill="#63d471" stroke="none" stroke-width="none" transform="translate(-132.76498413085938,11.947413643973215)" style="fill: rgb(99, 212, 113);"></path></g><g class="path" style="opacity: 1; transform-origin: -42.834984px -0.992586px; animation: 10s linear -2.971429s infinite normal forwards running blink-faa97d42-4aa4-4b0f-a769-b40a440576fe;"><path d="M84.81-13.84L84.81-15.45L94.56-15.45L94.56-15.45Q96.49-15.45 97.84-16.67L97.84-16.67L97.84-16.67Q99.19-17.88 99.19-20.08L99.19-20.08L99.19-20.08Q99.19-21.70 97.78-22.98L97.78-22.98L97.78-22.98Q96.38-24.26 94.56-24.26L94.56-24.26L80.68-24.26L80.68 0L79.06 0L79.06-25.88L94.56-25.88L94.56-25.88Q97.05-25.88 98.93-24.12L98.93-24.12L98.93-24.12Q100.80-22.37 100.80-20.08L100.80-20.08L100.80-20.08Q100.80-17.23 98.99-15.53L98.99-15.53L98.99-15.53Q97.17-13.84 94.56-13.84L94.56-13.84L84.81-13.84" fill="#63d471" stroke="none" stroke-width="none" transform="translate(-132.76498413085938,11.947413643973215)" style="fill: rgb(99, 212, 113);"></path></g><g class="path" style="opacity: 1; transform-origin: -42.829983px -2.607586px; animation: 10s linear -2.857143s infinite normal forwards running blink-faa97d42-4aa4-4b0f-a769-b40a440576fe;"><path d="M84.81-10.60L84.81-12.22L94.56-12.22L94.56-12.22Q97.79-12.22 100.11-14.42L100.11-14.42L100.11-14.42Q102.42-16.62 102.42-20.08L102.42-20.08L102.42-20.08Q102.42-23.02 100.06-25.26L100.06-25.26L100.06-25.26Q97.71-27.49 94.56-27.49L94.56-27.49L77.45-27.49L77.45 0L75.83 0L75.83-29.11L94.56-29.11L94.56-29.11Q98.38-29.11 101.21-26.40L101.21-26.40L101.21-26.40Q104.04-23.70 104.04-20.08L104.04-20.08L104.04-20.08Q104.04-16.04 101.24-13.32L101.24-13.32L101.24-13.32Q98.45-10.60 94.56-10.60L94.56-10.60L84.81-10.60" fill="#63d471" stroke="none" stroke-width="none" transform="translate(-132.76498413085938,11.947413643973215)" style="fill: rgb(99, 212, 113);"></path></g><g class="path" style="opacity: 1; transform-origin: -42.834988px -4.222586px; animation: 10s linear -2.742857s infinite normal forwards running blink-faa97d42-4aa4-4b0f-a769-b40a440576fe;"><path d="M84.81-7.37L84.81-8.98L94.56-8.98L94.56-8.98Q97.55-8.98 100.09-10.42L100.09-10.42L100.09-10.42Q102.62-11.86 104.14-14.42L104.14-14.42L104.14-14.42Q105.66-16.98 105.66-20.08L105.66-20.08L105.66-20.08Q105.66-22.89 104.15-25.35L104.15-25.35L104.15-25.35Q102.65-27.81 100.07-29.27L100.07-29.27L100.07-29.27Q97.50-30.73 94.56-30.73L94.56-30.73L74.21-30.73L74.21 0L72.59 0L72.59-32.34L94.56-32.34L94.56-32.34Q97.10-32.34 99.45-31.34L99.45-31.34L99.45-31.34Q101.79-30.34 103.50-28.69L103.50-28.69L103.50-28.69Q105.21-27.04 106.24-24.77L106.24-24.77L106.24-24.77Q107.27-22.51 107.27-20.08L107.27-20.08L107.27-20.08Q107.27-16.15 105.48-13.22L105.48-13.22L105.48-13.22Q103.68-10.29 100.65-8.76L100.65-8.76L104.04 0L102.31 0L99.10-8.11L99.10-8.11Q98.49-7.91 97.68-7.70L97.68-7.70L100.71 0L98.99 0L96.02-7.43L96.02-7.43Q95.32-7.37 94.56-7.37L94.56-7.37L97.41 0L95.71 0L92.88-7.37L91.42-7.37L94.13 0L92.43 0L89.69-7.37L84.81-7.37" fill="#63d471" stroke="none" stroke-width="none" transform="translate(-132.76498413085938,11.947413643973215)" style="fill: rgb(99, 212, 113);"></path></g><g class="path" style="opacity: 1; transform-origin: -42.829983px 0.627414px; animation: 10s linear -2.628571s infinite normal forwards running blink-faa97d42-4aa4-4b0f-a769-b40a440576fe;"><path d="M83.91-21.02L83.91 0L82.30 0L82.30-22.64L94.56-22.64L94.56-22.64Q95.82-22.64 96.69-21.89L96.69-21.89L96.69-21.89Q97.57-21.14 97.57-20.08L97.57-20.08L97.57-20.08Q97.57-17.07 94.56-17.07L94.56-17.07L84.81-17.07L84.81-18.69L94.56-18.69L94.56-18.69Q95.95-18.69 95.95-20.08L95.95-20.08L95.95-20.08Q95.95-20.46 95.54-20.74L95.54-20.74L95.54-20.74Q95.12-21.02 94.56-21.02L94.56-21.02L83.91-21.02" fill="#63d471" stroke="none" stroke-width="none" transform="translate(-132.76498413085938,11.947413643973215)" style="fill: rgb(99, 212, 113);"></path></g><g class="path" style="opacity: 1; transform-origin: -11.404984px -4.222586px; animation: 10s linear -2.514286s infinite normal forwards running blink-faa97d42-4aa4-4b0f-a769-b40a440576fe;"><path d="M120.55 0L120.55-32.34L122.17-32.34L122.17 0L120.55 0" fill="#63d471" stroke="none" stroke-width="none" transform="translate(-132.76498413085938,11.947413643973215)" style="fill: rgb(99, 212, 113);"></path></g><g class="path" style="opacity: 1; transform-origin: -14.644985px -4.222586px; animation: 10s linear -2.4s infinite normal forwards running blink-faa97d42-4aa4-4b0f-a769-b40a440576fe;"><path d="M117.31 0L117.31-32.34L118.93-32.34L118.93 0L117.31 0" fill="#63d471" stroke="none" stroke-width="none" transform="translate(-132.76498413085938,11.947413643973215)" style="fill: rgb(99, 212, 113);"></path></g><g class="path" style="opacity: 1; transform-origin: -17.874985px -4.222586px; animation: 10s linear -2.285714s infinite normal forwards running blink-faa97d42-4aa4-4b0f-a769-b40a440576fe;"><path d="M114.08 0L114.08-32.34L115.70-32.34L115.70 0L114.08 0" fill="#63d471" stroke="none" stroke-width="none" transform="translate(-132.76498413085938,11.947413643973215)" style="fill: rgb(99, 212, 113);"></path></g><g class="path" style="opacity: 1; transform-origin: -21.114986px -4.222586px; animation: 10s linear -2.171429s infinite normal forwards running blink-faa97d42-4aa4-4b0f-a769-b40a440576fe;"><path d="M110.84 0L110.84-32.34L112.46-32.34L112.46 0L110.84 0" fill="#63d471" stroke="none" stroke-width="none" transform="translate(-132.76498413085938,11.947413643973215)" style="fill: rgb(99, 212, 113);"></path></g><g class="path" style="opacity: 1; transform-origin: 10.555016px -4.222586px; animation: 10s linear -2.057143s infinite normal forwards running blink-faa97d42-4aa4-4b0f-a769-b40a440576fe;"><path d="M138.75-20.74L138.75-20.74L138.75-20.74Q136.85-18.84 136.85-16.17L136.85-16.17L136.85-16.17Q136.85-13.50 138.75-11.60L138.75-11.60L138.75-11.60Q140.65-9.70 143.32-9.70L143.32-9.70L143.32-9.70Q146.00-9.70 147.89-11.60L147.89-11.60L147.89-11.60Q149.79-13.50 149.79-16.17L149.79-16.17L149.79-16.17Q149.79-18.84 147.89-20.74L147.89-20.74L147.89-20.74Q146.00-22.64 143.32-22.64L143.32-22.64L143.32-22.64Q140.65-22.64 138.75-20.74zM137.61-10.46L137.61-10.46L137.61-10.46Q135.24-12.83 135.24-16.17L135.24-16.17L135.24-16.17Q135.24-19.52 137.61-21.89L137.61-21.89L137.61-21.89Q139.98-24.26 143.32-24.26L143.32-24.26L143.32-24.26Q146.67-24.26 149.04-21.89L149.04-21.89L149.04-21.89Q151.41-19.52 151.41-16.17L151.41-16.17L151.41-16.17Q151.41-12.83 149.04-10.46L149.04-10.46L149.04-10.46Q146.67-8.09 143.32-8.09L143.32-8.09L143.32-8.09Q139.98-8.09 137.61-10.46zM136.46-23.02L136.46-23.02L136.46-23.02Q133.62-20.17 133.62-16.17L133.62-16.17L133.62-16.17Q133.62-12.17 136.46-9.32L136.46-9.32L136.46-9.32Q139.30-6.47 143.32-6.47L143.32-6.47L143.32-6.47Q147.34-6.47 150.19-9.32L150.19-9.32L150.19-9.32Q153.03-12.17 153.03-16.17L153.03-16.17L153.03-16.17Q153.03-20.17 150.19-23.02L150.19-23.02L150.19-23.02Q147.34-25.88 143.32-25.88L143.32-25.88L143.32-25.88Q139.30-25.88 136.46-23.02zM133.52-10.49L133.52-10.49L133.52-10.49Q132.00-13.09 132.00-16.17L132.00-16.17L132.00-16.17Q132.00-19.25 133.52-21.85L133.52-21.85L133.52-21.85Q135.04-24.46 137.64-25.98L137.64-25.98L137.64-25.98Q140.25-27.49 143.32-27.49L143.32-27.49L143.32-27.49Q146.40-27.49 149.01-25.98L149.01-25.98L149.01-25.98Q151.61-24.46 153.13-21.85L153.13-21.85L153.13-21.85Q154.64-19.25 154.64-16.17L154.64-16.17L154.64-16.17Q154.64-13.09 153.13-10.49L153.13-10.49L153.13-10.49Q151.61-7.88 149.01-6.37L149.01-6.37L149.01-6.37Q146.40-4.85 143.32-4.85L143.32-4.85L143.32-4.85Q140.25-4.85 137.64-6.37L137.64-6.37L137.64-6.37Q135.04-7.88 133.52-10.49zM131.41-21.19L131.41-21.19L131.41-21.19Q130.39-18.80 130.39-16.17L130.39-16.17L130.39-16.17Q130.39-13.54 131.41-11.15L131.41-11.15L131.41-11.15Q132.43-8.76 134.17-7.02L134.17-7.02L134.17-7.02Q135.91-5.28 138.30-4.26L138.30-4.26L138.30-4.26Q140.70-3.23 143.32-3.23L143.32-3.23L143.32-3.23Q145.95-3.23 148.34-4.26L148.34-4.26L148.34-4.26Q150.74-5.28 152.48-7.02L152.48-7.02L152.48-7.02Q154.22-8.76 155.24-11.15L155.24-11.15L155.24-11.15Q156.26-13.54 156.26-16.17L156.26-16.17L156.26-16.17Q156.26-18.80 155.24-21.19L155.24-21.19L155.24-21.19Q154.22-23.58 152.48-25.32L152.48-25.32L152.48-25.32Q150.74-27.07 148.34-28.09L148.34-28.09L148.34-28.09Q145.95-29.11 143.32-29.11L143.32-29.11L143.32-29.11Q140.70-29.11 138.30-28.09L138.30-28.09L138.30-28.09Q135.91-27.07 134.17-25.32L134.17-25.32L134.17-25.32Q132.43-23.58 131.41-21.19zM129.93-10.51L129.93-10.51L129.93-10.51Q128.77-13.21 128.77-16.17L128.77-16.17L128.77-16.17Q128.77-19.14 129.93-21.83L129.93-21.83L129.93-21.83Q131.08-24.53 133.02-26.47L133.02-26.47L133.02-26.47Q134.97-28.41 137.66-29.57L137.66-29.57L137.66-29.57Q140.36-30.73 143.32-30.73L143.32-30.73L143.32-30.73Q146.29-30.73 148.98-29.57L148.98-29.57L148.98-29.57Q151.68-28.41 153.62-26.47L153.62-26.47L153.62-26.47Q155.56-24.53 156.72-21.83L156.72-21.83L156.72-21.83Q157.88-19.14 157.88-16.17L157.88-16.17L157.88-16.17Q157.88-13.21 156.72-10.51L156.72-10.51L156.72-10.51Q155.56-7.82 153.62-5.87L153.62-5.87L153.62-5.87Q151.68-3.93 148.98-2.77L148.98-2.77L148.98-2.77Q146.29-1.62 143.32-1.62L143.32-1.62L143.32-1.62Q140.36-1.62 137.66-2.77L137.66-2.77L137.66-2.77Q134.97-3.93 133.02-5.87L133.02-5.87L133.02-5.87Q131.08-7.82 129.93-10.51zM128.43-22.45L128.43-22.45L128.43-22.45Q127.15-19.45 127.15-16.17L127.15-16.17L127.15-16.17Q127.15-12.89 128.43-9.89L128.43-9.89L128.43-9.89Q129.71-6.90 131.88-4.73L131.88-4.73L131.88-4.73Q134.05-2.56 137.05-1.28L137.05-1.28L137.05-1.28Q140.04 0 143.32 0L143.32 0L143.32 0Q146.60 0 149.60-1.28L149.60-1.28L149.60-1.28Q152.60-2.56 154.77-4.73L154.77-4.73L154.77-4.73Q156.93-6.90 158.21-9.89L158.21-9.89L158.21-9.89Q159.50-12.89 159.50-16.17L159.50-16.17L159.50-16.17Q159.50-19.45 158.21-22.45L158.21-22.45L158.21-22.45Q156.93-25.45 154.77-27.62L154.77-27.62L154.77-27.62Q152.60-29.78 149.60-31.06L149.60-31.06L149.60-31.06Q146.60-32.34 143.32-32.34L143.32-32.34L143.32-32.34Q140.04-32.34 137.05-31.06L137.05-31.06L137.05-31.06Q134.05-29.78 131.88-27.62L131.88-27.62L131.88-27.62Q129.71-25.45 128.43-22.45zM126.95-9.27L126.95-9.27L126.95-9.27Q125.53-12.56 125.53-16.17L125.53-16.17L125.53-16.17Q125.53-19.79 126.95-23.08L126.95-23.08L126.95-23.08Q128.36-26.37 130.75-28.75L130.75-28.75L130.75-28.75Q133.13-31.13 136.42-32.55L136.42-32.55L136.42-32.55Q139.71-33.96 143.32-33.96L143.32-33.96L143.32-33.96Q146.94-33.96 150.23-32.55L150.23-32.55L150.23-32.55Q153.52-31.13 155.90-28.75L155.90-28.75L155.90-28.75Q158.28-26.37 159.70-23.08L159.70-23.08L159.70-23.08Q161.11-19.79 161.11-16.17L161.11-16.17L161.11-16.17Q161.11-12.56 159.70-9.27L159.70-9.27L159.70-9.27Q158.28-5.97 155.90-3.59L155.90-3.59L155.90-3.59Q153.52-1.21 150.23 0.20L150.23 0.20L150.23 0.20Q146.94 1.62 143.32 1.62L143.32 1.62L143.32 1.62Q139.71 1.62 136.42 0.20L136.42 0.20L136.42 0.20Q133.13-1.21 130.75-3.59L130.75-3.59L130.75-3.59Q128.36-5.97 126.95-9.27" fill="#63d471" stroke="none" stroke-width="none" transform="translate(-132.76498413085938,11.947413643973215)" style="fill: rgb(99, 212, 113);"></path></g><g class="path" style="opacity: 1; transform-origin: 45.550018px -4.247588px; animation: 10s linear -1.942857s infinite normal forwards running blink-faa97d42-4aa4-4b0f-a769-b40a440576fe;"><path d="M179.60-15.39L179.60-15.39L177.04-15.39L177.04-15.39Q172.32-15.39 169.78-17.31L169.78-17.31L169.78-17.31Q167.24-19.23 167.24-22.60L167.24-22.60L167.24-22.60Q167.24-25.74 170.23-27.84L170.23-27.84L170.23-27.84Q173.22-29.94 178.61-29.94L178.61-29.94L178.61-29.94Q182.20-29.94 185.31-28.95L185.31-28.95L185.31-28.95Q188.42-27.96 190.49-26.17L190.49-26.17L189.23-25.16L189.23-25.16Q187.39-26.66 184.61-27.49L184.61-27.49L184.61-27.49Q181.82-28.32 178.61-28.32L178.61-28.32L178.61-28.32Q173.87-28.32 171.37-26.71L171.37-26.71L171.37-26.71Q168.86-25.09 168.86-22.60L168.86-22.60L168.86-22.60Q168.86-19.90 170.92-18.45L170.92-18.45L170.92-18.45Q172.97-17.00 177.04-17.00L177.04-17.00L179.51-17.00L179.51-17.00Q184.29-17.00 186.84-15.08L186.84-15.08L186.84-15.08Q189.39-13.16 189.39-9.79L189.39-9.79L189.39-9.79Q189.39-6.65 186.40-4.55L186.40-4.55L186.40-4.55Q183.42-2.45 178.03-2.45L178.03-2.45L178.03-2.45Q174.43-2.45 171.32-3.44L171.32-3.44L171.32-3.44Q168.21-4.42 166.14-6.22L166.14-6.22L167.40-7.23L167.40-7.23Q169.24-5.73 172.03-4.90L172.03-4.90L172.03-4.90Q174.81-4.07 178.03-4.07L178.03-4.07L178.03-4.07Q182.76-4.07 185.27-5.68L185.27-5.68L185.27-5.68Q187.77-7.30 187.77-9.79L187.77-9.79L187.77-9.79Q187.77-12.49 185.72-13.94L185.72-13.94L185.72-13.94Q183.66-15.39 179.60-15.39" fill="#63d471" stroke="none" stroke-width="none" transform="translate(-132.76498413085938,11.947413643973215)" style="fill: rgb(99, 212, 113);"></path></g><g class="path" style="opacity: 1; transform-origin: 45.74501px -7.477585px; animation: 10s linear -1.828571s infinite normal forwards running blink-faa97d42-4aa4-4b0f-a769-b40a440576fe;"><path d="M179.60-12.15L179.60-12.15L177.04-12.15L177.04-12.15Q170.79-12.15 167.40-14.99L167.40-14.99L167.40-14.99Q164.01-17.83 164.01-22.60L164.01-22.60L164.01-22.60Q164.01-24.77 164.98-26.68L164.98-26.68L164.98-26.68Q165.94-28.59 167.75-30.04L167.75-30.04L167.75-30.04Q169.56-31.49 172.37-32.33L172.37-32.33L172.37-32.33Q175.17-33.17 178.61-33.17L178.61-33.17L178.61-33.17Q182.94-33.17 186.72-31.86L186.72-31.86L186.72-31.86Q190.49-30.55 193.01-28.19L193.01-28.19L191.70-27.22L191.70-27.22Q189.41-29.29 185.98-30.42L185.98-30.42L185.98-30.42Q182.54-31.56 178.61-31.56L178.61-31.56L178.61-31.56Q172.54-31.56 169.09-29.00L169.09-29.00L169.09-29.00Q165.63-26.44 165.63-22.60L165.63-22.60L165.63-22.60Q165.63-18.53 168.59-16.15L168.59-16.15L168.59-16.15Q171.56-13.77 177.04-13.77L177.04-13.77L179.51-13.77L179.51-13.77Q186.16-13.77 186.16-9.79L186.16-9.79L186.16-9.79Q186.16-8.00 184.12-6.84L184.12-6.84L184.12-6.84Q182.09-5.68 178.03-5.68L178.03-5.68L178.03-5.68Q175.17-5.68 172.72-6.35L172.72-6.35L172.72-6.35Q170.28-7.01 168.68-8.24L168.68-8.24L169.96-9.23L169.96-9.23Q172.77-7.30 178.03-7.30L178.03-7.30L178.03-7.30Q181.39-7.30 182.97-8.00L182.97-8.00L182.97-8.00Q184.54-8.69 184.54-9.79L184.54-9.79L184.54-9.79Q184.54-11.07 183.44-11.61L183.44-11.61L183.44-11.61Q182.34-12.15 179.60-12.15" fill="#63d471" stroke="none" stroke-width="none" transform="translate(-132.76498413085938,11.947413643973215)" style="fill: rgb(99, 212, 113);"></path></g><g class="path" style="opacity: 1; transform-origin: 45.365021px -1.012586px; animation: 10s linear -1.714286s infinite normal forwards running blink-faa97d42-4aa4-4b0f-a769-b40a440576fe;"><path d="M179.60-18.62L179.60-18.62L177.04-18.62L177.04-18.62Q170.48-18.62 170.48-22.60L170.48-22.60L170.48-22.60Q170.48-24.39 172.51-25.55L172.51-25.55L172.51-25.55Q174.54-26.71 178.61-26.71L178.61-26.71L178.61-26.71Q181.46-26.71 183.91-26.04L183.91-26.04L183.91-26.04Q186.36-25.38 187.95-24.15L187.95-24.15L186.67-23.16L186.67-23.16Q183.87-25.09 178.61-25.09L178.61-25.09L178.61-25.09Q175.24-25.09 173.67-24.39L173.67-24.39L173.67-24.39Q172.10-23.70 172.10-22.60L172.10-22.60L172.10-22.60Q172.10-21.32 173.20-20.78L173.20-20.78L173.20-20.78Q174.30-20.24 177.04-20.24L177.04-20.24L179.60-20.24L179.60-20.24Q185.84-20.24 189.23-17.40L189.23-17.40L189.23-17.40Q192.63-14.55 192.63-9.79L192.63-9.79L192.63-9.79Q192.63-7.61 191.66-5.71L191.66-5.71L191.66-5.71Q190.69-3.80 188.89-2.35L188.89-2.35L188.89-2.35Q187.08-0.90 184.27-0.06L184.27-0.06L184.27-0.06Q181.46 0.79 178.03 0.79L178.03 0.79L178.03 0.79Q173.69 0.79 169.92-0.53L169.92-0.53L169.92-0.53Q166.14-1.84 163.63-4.20L163.63-4.20L164.93-5.17L164.93-5.17Q167.22-3.10 170.66-1.97L170.66-1.97L170.66-1.97Q174.09-0.83 178.03-0.83L178.03-0.83L178.03-0.83Q184.09-0.83 187.55-3.39L187.55-3.39L187.55-3.39Q191.01-5.95 191.01-9.79L191.01-9.79L191.01-9.79Q191.01-13.86 188.04-16.24L188.04-16.24L188.04-16.24Q185.08-18.62 179.60-18.62" fill="#63d471" stroke="none" stroke-width="none" transform="translate(-132.76498413085938,11.947413643973215)" style="fill: rgb(99, 212, 113);"></path></g><g class="path" style="opacity: 1; transform-origin: 90.780014px -4.222586px; animation: 10s linear -1.6s infinite normal forwards running blink-faa97d42-4aa4-4b0f-a769-b40a440576fe;"><path d="M217.44-11.23L217.44 0L215.83 0L215.83-32.34L231.26-32.34L231.26-30.73L217.44-30.73L217.44-29.11L231.26-29.11L231.26-27.49L217.44-27.49L217.44-25.88L231.26-25.88L231.26-24.26L217.44-24.26L217.44-19.32L230.18-19.32L230.18-17.70L217.44-17.70L217.44-16.08L230.18-16.08L230.18-14.46L217.44-14.46L217.44-12.85L230.18-12.85L230.18-11.23L217.44-11.23" fill="#63d471" stroke="none" stroke-width="none" transform="translate(-132.76498413085938,11.947413643973215)" style="fill: rgb(99, 212, 113);"></path></g><g class="path" style="opacity: 1; transform-origin: 80.635017px -4.222586px; animation: 10s linear -1.485714s infinite normal forwards running blink-faa97d42-4aa4-4b0f-a769-b40a440576fe;"><path d="M214.21-32.34L214.21 0L212.59 0L212.59-32.34L214.21-32.34" fill="#63d471" stroke="none" stroke-width="none" transform="translate(-132.76498413085938,11.947413643973215)" style="fill: rgb(99, 212, 113);"></path></g><g class="path" style="opacity: 1; transform-origin: 77.405014px -4.222586px; animation: 10s linear -1.371429s infinite normal forwards running blink-faa97d42-4aa4-4b0f-a769-b40a440576fe;"><path d="M210.98-32.34L210.98 0L209.36 0L209.36-32.34L210.98-32.34" fill="#63d471" stroke="none" stroke-width="none" transform="translate(-132.76498413085938,11.947413643973215)" style="fill: rgb(99, 212, 113);"></path></g><g class="path" style="opacity: 1; transform-origin: 74.165016px -4.222586px; animation: 10s linear -1.257143s infinite normal forwards running blink-faa97d42-4aa4-4b0f-a769-b40a440576fe;"><path d="M207.74-32.34L207.74 0L206.12 0L206.12-32.34L207.74-32.34" fill="#63d471" stroke="none" stroke-width="none" transform="translate(-132.76498413085938,11.947413643973215)" style="fill: rgb(99, 212, 113);"></path></g><g class="path" style="opacity: 1; transform-origin: 102.94001px -4.222586px; animation: 10s linear -1.142857s infinite normal forwards running blink-faa97d42-4aa4-4b0f-a769-b40a440576fe;"><path d="M234.90 0L234.90-32.34L236.51-32.34L236.51 0L234.90 0" fill="#63d471" stroke="none" stroke-width="none" transform="translate(-132.76498413085938,11.947413643973215)" style="fill: rgb(99, 212, 113);"></path></g><g class="path" style="opacity: 1; transform-origin: 118.605026px -4.222586px; animation: 10s linear -1.028571s infinite normal forwards running blink-faa97d42-4aa4-4b0f-a769-b40a440576fe;"><path d="M244.60 0L244.60-32.34L246.22-32.34L246.22-8.09L258.14-8.09L258.14-6.47L246.22-6.47L246.22-4.85L258.14-4.85L258.14-3.23L246.22-3.23L246.22-1.62L258.14-1.62L258.14 0L244.60 0" fill="#63d471" stroke="none" stroke-width="none" transform="translate(-132.76498413085938,11.947413643973215)" style="fill: rgb(99, 212, 113);"></path></g><g class="path" style="opacity: 1; transform-origin: 109.410011px -4.222586px; animation: 10s linear -0.914286s infinite normal forwards running blink-faa97d42-4aa4-4b0f-a769-b40a440576fe;"><path d="M241.37 0L241.37-32.34L242.98-32.34L242.98 0L241.37 0" fill="#63d471" stroke="none" stroke-width="none" transform="translate(-132.76498413085938,11.947413643973215)" style="fill: rgb(99, 212, 113);"></path></g><g class="path" style="opacity: 1; transform-origin: 106.175018px -4.222586px; animation: 10s linear -0.8s infinite normal forwards running blink-faa97d42-4aa4-4b0f-a769-b40a440576fe;"><path d="M238.13 0L238.13-32.34L239.75-32.34L239.75 0L238.13 0" fill="#63d471" stroke="none" stroke-width="none" transform="translate(-132.76498413085938,11.947413643973215)" style="fill: rgb(99, 212, 113);"></path></g><g class="path" style="opacity: 1; transform-origin: 154.030014px -4.222586px; animation: 10s linear -0.685714s infinite normal forwards running blink-faa97d42-4aa4-4b0f-a769-b40a440576fe;"><path d="M280.90-10.92L291.07-32.34L292.69-32.34L282.51-10.92L282.51 0L280.90 0L280.90-10.92" fill="#63d471" stroke="none" stroke-width="none" transform="translate(-132.76498413085938,11.947413643973215)" style="fill: rgb(99, 212, 113);"></path></g><g class="path" style="opacity: 1; transform-origin: 150.790024px -4.222586px; animation: 10s linear -0.571429s infinite normal forwards running blink-faa97d42-4aa4-4b0f-a769-b40a440576fe;"><path d="M277.66-10.92L287.84-32.34L289.45-32.34L279.28-10.92L279.28 0L277.66 0L277.66-10.92" fill="#63d471" stroke="none" stroke-width="none" transform="translate(-132.76498413085938,11.947413643973215)" style="fill: rgb(99, 212, 113);"></path></g><g class="path" style="opacity: 1; transform-origin: 147.560013px -4.222586px; animation: 10s linear -0.457143s infinite normal forwards running blink-faa97d42-4aa4-4b0f-a769-b40a440576fe;"><path d="M274.43-10.92L284.60-32.34L286.22-32.34L276.04-10.92L276.04 0L274.43 0L274.43-10.92" fill="#63d471" stroke="none" stroke-width="none" transform="translate(-132.76498413085938,11.947413643973215)" style="fill: rgb(99, 212, 113);"></path></g><g class="path" style="opacity: 1; transform-origin: 138.900009px -4.222586px; animation: 10s linear -0.342857s infinite normal forwards running blink-faa97d42-4aa4-4b0f-a769-b40a440576fe;"><path d="M271.98-12.56L281.37-32.34L282.99-32.34L272.81-10.92L272.81 0L271.19 0L271.19-10.92L260.34-32.34L261.96-32.34L271.98-12.56" fill="#63d471" stroke="none" stroke-width="none" transform="translate(-132.76498413085938,11.947413643973215)" style="fill: rgb(99, 212, 113);"></path></g><g class="path" style="opacity: 1; transform-origin: 135.655014px -11.882586px; animation: 10s linear -0.228571s infinite normal forwards running blink-faa97d42-4aa4-4b0f-a769-b40a440576fe;"><path d="M272.43-15.32L263.60-32.34L265.22-32.34L273.24-17.09L272.43-15.32" fill="#63d471" stroke="none" stroke-width="none" transform="translate(-132.76498413085938,11.947413643973215)" style="fill: rgb(99, 212, 113);"></path></g><g class="path" style="opacity: 1; transform-origin: 138.080017px -13.657586px; animation: 10s linear -0.114286s infinite normal forwards running blink-faa97d42-4aa4-4b0f-a769-b40a440576fe;"><path d="M274.02-18.87L266.84-32.34L268.48-32.34L274.85-20.64L274.02-18.87" fill="#63d471" stroke="none" stroke-width="none" transform="translate(-132.76498413085938,11.947413643973215)" style="fill: rgb(99, 212, 113);"></path></g><g class="path" style="opacity: 1; transform-origin: 140.530014px -15.417585px; animation: 10s linear 0s infinite normal forwards running blink-faa97d42-4aa4-4b0f-a769-b40a440576fe;"><path d="M275.66-22.39L270.12-32.34L271.73-32.34L276.47-24.17L275.66-22.39" fill="#63d471" stroke="none" stroke-width="none" transform="translate(-132.76498413085938,11.947413643973215)" style="fill: rgb(99, 212, 113);"></path></g></g>
</g>
</g>
<style id="blink-faa97d42-4aa4-4b0f-a769-b40a440576fe" data-anikit="">@keyframes blink-faa97d42-4aa4-4b0f-a769-b40a440576fe {
  0% { opacity: 1; }
  49.75% { opacity: 1; }
  50.25% { opacity: 0; }
  99.5% { opacity: 0; }
  100% { opacity: 1; }
}</style></svg>
