<svg id="eC9BIkZrVS31" xmlns="http://www.w3.org/2000/svg" xmlns:xlink="http://www.w3.org/1999/xlink" viewBox="0 0 60 60" shape-rendering="geometricPrecision" text-rendering="geometricPrecision"><g transform="matrix(.119209 0 0 0.119204 64.504943-1.203163)"><path d="M-113.5576,135.25363c8.35538,5.78449,16.28229,12.42595,23.56647,19.71013c7.28418,7.49842,14.13988,15.42533,19.92438,23.78071c5.78449,8.14114,10.49779,16.49653,13.92564,24.85191c2.1424,4.92754,3.85633,9.64083,5.14177,14.13988c1.28544,4.7133,2.57089,9.42659,3.64209,14.56837.85696,4.49905,1.49969,9.21234,2.14241,14.56836.42848,5.35601.64272,10.28355.64272,14.7826c0,4.71329-.21424,9.64083-.64272,14.99684-.64272,5.35602-1.28545,10.06931-2.14241,14.56837-1.0712,4.92753-2.35665,9.85506-3.64209,14.56836-1.28544,4.49905-2.99937,9.21235-5.14177,13.92564-3.85634,9.42659-8.56963,18.21045-14.13989,26.56584s-11.78323,16.28228-18.85317,23.13798c-6.8557,6.8557-14.56836,13.06868-22.92375,18.85318-8.35538,5.35601-17.13925,10.06931-26.56583,14.13988-8.99811,3.64209-18.21046,6.42722-27.63704,8.35538s-18.85318,2.99937-28.49401,3.21361c-9.42658,0-19.06741-.64272-28.27976-2.35665-9.64083-1.71392-18.85317-4.28481-27.63704-7.71266l-1.49968-.64272c-20.99558-10.06931-31.49337-14.99684-39.20604-14.99684s-18.63893,5.14177-40.27723,15.21108l-2.14241,1.0712-1.28544.42849c-8.99811,2.99936-17.78197,5.14177-26.3516,6.64145s-17.13925,2.35665-25.92311,2.14241c-8.78387,0-17.56773-1.0712-26.13736-2.99937-8.56962-1.71392-17.35349-4.71329-26.78008-8.35538-13.92564-5.99874-26.78007-13.7114-38.34907-23.13799v.21424c-11.56899-9.64083-21.6383-20.78134-29.99368-33.20729-8.14115-12.42596-14.78261-25.92312-19.06742-40.27724s-6.64146-29.13673-6.64146-44.34781c0-9.85507,1.0712-19.92438,2.99937-29.5652s4.92753-19.28166,8.78387-28.49401c3.64209-9.21234,8.35538-17.99621,13.92564-26.35159s11.99747-16.28229,18.85317-23.13799c3.21361-3.21361,6.8557-6.42722,11.14051-9.85507c4.07057-3.42785,7.92691-6.21298,11.99748-8.9981c3.85633-2.57089,8.14114-5.14178,12.85443-7.71267c4.49906-2.35664,8.99811-4.49905,13.49716-6.42722c4.92754-1.92816,9.64083-3.64209,14.13988-4.92753c4.7133-1.49968,9.42659-2.78513,14.56837-3.64209c4.49905-.85696,9.21234-1.71393,14.56836-2.14241c5.35601-.64272,10.28355-.85696,14.7826-.85696c4.07057,0,9.42659.42848,15.42533,1.0712c5.14177.42849,10.71203,1.28545,16.28228,2.35665c4.49906.85696,8.99811,1.92817,13.28292,3.21361s8.14115,2.78513,11.14051,4.28481c9.42659,4.7133,16.71077,8.14115,23.13799,10.28355c5.35602,1.71393,10.06931,2.57089,14.7826,2.35665c4.92754,0,9.42659-1.0712,14.78261-2.78513c6.42722-2.1424,13.7114-5.35601,23.13798-9.64083c8.56963-3.64209,17.35349-6.42722,26.56584-8.35538s18.63893-2.78513,28.06552-2.78513c9.64083.21424,19.28166,1.0712,28.92249,2.99937c9.64082,2.14241,19.06741,4.92753,28.06552,8.56962c8.56962,3.6421,16.92501,8.35539,25.06615,14.13989Zm9.42659,33.85001c-12.85444-13.06868-27.85128-23.78071-41.99116-29.5652-15.63957-6.64146-32.77882-10.06931-49.70383-10.06931-15.8538-.21424-31.70761,2.78513-46.27597,9.21234-19.92438,8.99811-31.49337,13.92564-45.63325,14.13989-14.13989.42848-26.78008-4.28482-47.13294-14.78261-4.28481-2.1424-11.56899-4.07057-19.28166-5.57025-10.28355-1.92817-21.20982-2.99937-28.06552-2.99937-8.56962,0-17.13925.85696-25.49463,2.35664-8.78387,1.92817-17.13925,4.28482-24.85191,7.71267-8.14115,3.21361-15.85381,7.49842-23.13799,12.21171s-13.92564,10.28355-19.92438,16.49653c-12.42595,12.21172-22.06678,26.99432-28.70824,42.84812s-10.06931,33.2073-10.06931,50.56079c0,26.99432,7.9269,52.27471,22.28102,73.69877c14.13988,21.20983,34.70698,38.34908,59.5589,48.63262c16.06804,6.64146,30.85065,9.85507,45.41901,10.06931s29.5652-2.57088,46.06173-7.9269l1.0712-.42848c48.41838-22.92375,48.84687-23.13799,96.40828-.21424c15.85381,5.99874,32.1361,8.99811,48.63262,8.78386s32.99306-3.64209,48.84687-10.28355c16.28228-6.64145,30.85064-16.49652,43.06236-28.70824s21.85254-26.56584,28.70824-43.06236c3.21361-7.71267,5.7845-16.06805,7.49842-24.85191c1.71393-8.35539,2.57089-16.92501,2.57089-25.70888c0-8.56962-.85696-17.13925-2.57089-25.49463-1.71392-8.78387-4.28481-17.13925-7.49842-25.06615-5.78449-14.13989-16.49652-28.92249-29.77944-41.99117Z" clip-rule="evenodd" fill="#63d471" stroke-width="0.01"/><path d="M-103.91677,261.86983c0,51.20351-41.56268,92.55195-92.76619,92.55195-38.34907,0-54.20288-24.63767-92.76619-24.63767s-53.98864,24.63767-92.55195,24.63767c-51.41775,0-92.76619-41.34844-92.76619-92.55195s41.34844-92.76619,92.76619-92.76619c36.63515,0,54.63136,24.85191,92.55195,24.85191c31.49337,0,39.63452-12.64019,64.91491-20.5671c59.13041-18.63893,120.61747,25.49464,120.61747,88.48138Zm-13.06868-79.69751c20.35286,20.35286,32.77881,48.63262,32.77881,79.69751s-12.42595,59.13041-32.77881,79.48327c-20.5671,20.35286-48.63262,32.99306-79.69751,32.99306-37.49211,0-64.91491-24.85191-92.76619-24.85191-33.85002,0-55.48832,24.85191-92.76619,24.85191-31.06489,0-59.13041-12.6402-79.48327-32.99306s-32.99305-48.41838-32.99305-79.48327s12.64019-59.34465,32.99305-79.69751s48.41838-32.99305,79.48327-32.99305c38.13483,0,64.48643,24.85191,92.76619,24.85191c26.13736,0,44.13357-14.13988,68.12852-21.20982c36.4209-10.71204,77.76934,2.78512,104.33518,29.35096Z" transform="translate(0 0.021797)" clip-rule="evenodd" fill="#63d471" fill-rule="evenodd" stroke-width="0.01"/><path d="M-143.12281,206.59575c-13.28291-13.28292-31.49337-21.42406-51.63199-21.42406-7.71266,0-19.06741,3.64209-27.42279,6.42722-12.6402,4.49905-22.70951,10.92627-35.56395,14.35412-9.64083,2.57089-19.71013,4.07057-29.77944,4.07057-16.92501,0-38.9918-8.14114-49.27535-12.21171-8.56962-3.42785-15.63956-7.92691-24.85191-10.28355-5.7845-1.49969-11.99747-2.35665-18.63893-2.35665-20.13862,0-38.34907,8.14114-51.41775,21.42406-13.28292,13.06868-21.42406,31.27913-21.42406,51.41775s8.14114,38.34907,21.42406,51.63199c13.06868,13.28292,31.27913,21.42406,51.41775,21.42406c10.06931,0,26.13735-5.99874,33.63577-8.56962.85697-.42848,1.92817-.85697,2.78513-1.07121c8.14115-4.71329,16.71077-8.35538,25.92312-10.92627c9.85507-2.78513,19.92438-4.28481,30.42217-4.28481c18.42469,0,42.2054,9.21235,52.06047,13.28292c3.42785,1.49968,6.21297,2.99937,9.64082,4.71329c4.07058,1.92817,8.35539,3.42785,13.06868,4.49905c5.7845,1.49969,11.78324,2.35665,17.99621,2.35665c20.13862,0,38.34908-8.14114,51.63199-21.42406c13.06868-13.28292,21.20983-31.49337,21.20983-51.63199s-8.14115-38.34907-21.20983-51.41775Zm-87.83865,8.78387c13.7114-5.57026,25.28039-10.28355,36.20666-10.28355c14.78261,0,28.06553,5.78449,37.49211,15.42532c9.64083,9.64083,15.63957,22.92375,15.63957,37.49211c0,14.7826-5.99874,28.06552-15.42533,37.70635-9.64082,9.64083-22.92374,15.42532-37.70635,15.42532-16.06804,0-28.92248-5.57025-43.49084-11.99747-13.7114-5.99874-29.35097-12.85444-49.27534-12.85444-2.99937,0-5.7845.21424-8.56963.42848-3.21361.21424-6.42722.42848-9.42659.85697-10.06931,1.49968-25.28039,7.49842-38.56331,12.85443-14.56836,5.7845-27.20856,10.71203-36.20666,10.71203-14.56836,0-27.85128-5.78449-37.49211-15.42532s-15.42533-22.92375-15.42533-37.70635c0-10.49779,3.21361-20.78134,8.99811-29.35097c5.57026-8.56962,13.7114-15.63956,23.56647-19.71013c21.42406-8.78387,41.1342-.21424,59.98737,7.9269c5.14178,2.35665,10.28355,4.49905,15.21109,5.99874c5.99873,1.92816,12.64019,3.64209,19.28165,4.92753c6.21298,1.28545,12.6402,2.14241,18.63894,2.14241c21.20982,0,40.70571-8.14114,56.55952-14.56836Z" transform="translate(-1.928169 3.642089)" clip-rule="evenodd" fill="#63d471" stroke-width="0.01"/><path d="M-352.00741,236.58944v.21424c3.21361,1.28544,6.21298,2.57089,11.14051,4.49905l45.20477,17.78197-45.63325,17.13925-13.28292,5.14178c-.21424.21424-.64272.21424-.85696.42848v0c-12.21172,4.92753-22.92375,8.99811-28.06552,8.99811-2.14241,0-4.28481-.21425-6.21298-.42849-2.14241-.42848-4.07057-1.0712-5.99874-1.92816-2.1424-.85696-3.85633-1.71393-5.78449-2.99937-1.71393-1.0712-3.42785-2.35665-4.92754-3.85633-1.28544-1.49969-2.57089-3.21361-3.85633-4.92754-.85696-1.28544-1.49968-2.57088-2.14241-4.07057h-.21424l-.64272-1.71392c-.85696-1.92817-1.49968-3.85633-1.92816-5.99874-.21424-1.92817-.42848-4.07057-.42848-6.21298c0-1.49968,0-2.99937.21424-4.49905s.64272-2.99937,1.0712-4.28481l.21424-.64273c.42848-1.49968.85696-2.99936,1.49968-4.28481.85697-1.49968,1.49969-2.78513,2.35665-4.28481.85696-1.0712,1.92817-2.35665,2.78513-3.42785.85696-.85696,1.49968-1.71393,2.35665-2.35665v-.21424l.85696-.85696c1.28544-.85696,2.57089-1.92816,3.85633-2.78513c1.49968-.85696,2.78513-1.49968,4.49905-2.1424c6.64146-2.78513,13.92564-2.35665,21.42406-.64273c6.42722,1.71393,12.85444,4.28482,19.28166,7.06995h.21424Zm4.28481,22.06678c-3.85633-1.49968-7.9269-3.21361-11.78323-4.92753-11.569-4.92754-23.35223-10.06931-29.35097-7.49842-2.35664.85696-4.28481,2.57088-5.78449,4.92753-1.49969,2.14241-2.35665,4.92753-2.35665,7.49842c0,3.85633,1.49968,7.28418,3.85633,9.64083s5.7845,3.85633,9.64083,3.85633c1.71392,0,10.92627-3.64209,21.42406-7.9269c4.71329-1.71393,9.42659-3.64209,14.35412-5.57026Zm149.53995-13.28292c-3.64209,0-11.56899,3.21361-21.20982,7.06994-5.35601,2.14241-10.92627,4.49906-16.71077,6.64146c3.42785,1.49969,7.06995,2.99937,10.28355,4.49906c10.49779,4.49905,19.71014,8.56962,27.63704,8.56962c3.85634,0,7.28419-1.49968,9.64083-3.85633s3.85633-5.7845,3.85633-9.64083c0-3.64209-1.49968-7.06994-3.85633-9.42659s-5.78449-3.85633-9.64083-3.85633Zm-14.56836-15.63956c2.57089-.85696,5.14178-1.71393,7.71266-2.35665c2.35665-.64272,4.7133-.85696,6.8557-.85696s4.28482.21424,6.21298.64272c2.14241.42848,4.07057.85696,5.99874,1.71393c2.14241.85696,4.07057,1.92816,5.7845,2.99936s3.42785,2.57089,4.92753,4.07058c1.49969,1.28544,2.78513,2.99937,4.07057,4.92753c1.07121,1.71393,2.14241,3.64209,2.78513,5.57026l.21424.42848v.21424c.85696,1.71392,1.28545,3.64209,1.71393,5.35601.42848,2.14241.64272,4.07058.64272,6.21298s-.21424,4.28481-.64272,6.21298c-.42848,2.14241-1.07121,4.07057-1.92817,5.99874-.64272,2.1424-1.71392,4.07057-2.78513,5.78449-1.28544,1.71393-2.57088,3.42785-4.07057,4.92754s-2.99937,2.78513-4.92753,3.85633c-1.07121.64272-2.14241,1.28544-3.21361,1.92817v.21424l-2.35665.85696c-1.92817.85696-4.07057,1.49968-5.99874,1.92816-2.1424.21424-4.28481.42849-6.42722.42849-2.99936,0-6.21297-.21425-9.42658-.85697s-6.21298-1.49968-9.42659-2.57088c-5.35602-1.92817-10.49779-4.28482-16.06805-6.64146l-2.99937-1.07121v-.21424l-7.06994-2.99937-44.3478-18.42469c17.78197-6.42722,35.56394-12.85444,53.13167-19.71014c2.57089-1.0712,5.57026-1.92816,8.14114-3.21361c5.7845-2.35664,11.14052-4.49905,13.49716-5.35601Z" transform="translate(1.285441 3.106483)" clip-rule="evenodd" fill="#63d471" stroke-width="0.01"/></g></svg>
